<svg width="1640" height="1224" viewBox="0 0 1640 1224" fill="none" xmlns="http://www.w3.org/2000/svg">
<g filter="url(#filter0_d_0_3)">
<g clip-path="url(#clip0_0_3)">
<rect x="70" y="70" width="1440" height="1024" rx="30" fill="#D9EBFF"/>
<g filter="url(#filter1_d_0_3)">
<path d="M879.574 654.304C925.272 681.425 925.272 747.575 879.574 774.696L41.2268 1272.26C-5.43475 1299.95 -64.5 1266.32 -64.5 1212.06L-64.4999 216.938C-64.4999 162.677 -5.43482 129.048 41.2267 156.742L879.574 654.304Z" fill="white"/>
</g>
<g filter="url(#filter2_d_0_3)">
<path d="M1974.28 -467.007C2020.62 -493.022 2077.9 -459.947 2078.54 -406.811L2090.27 568C2090.92 622.257 2032.27 656.594 1985.28 629.464L1123.47 131.902C1076.48 104.772 1076.89 36.8052 1124.21 10.242L1974.28 -467.007Z" fill="white"/>
</g>
<path d="M437.547 439.238L437.369 501.677L226.299 531.056L226.477 468.617L437.547 439.238Z" fill="#4045A9"/>
<path d="M283.794 525.842L283.617 588.281L178.486 527.583L178.664 465.145L283.794 525.842Z" fill="#4045A9"/>
<path d="M401.042 487.661L400.865 550.099L330.306 591.103L330.483 528.665L401.042 487.661Z" fill="#4045A9"/>
<path d="M330.337 552.714L330.16 615.152L309.475 603.21L309.652 540.772L330.337 552.714Z" fill="#4045A9"/>
<path d="M340.613 546.743L340.437 609.181L330.16 615.152L330.337 552.714L340.613 546.743Z" fill="#4045A9"/>
<path d="M262.425 568.216L262.249 630.655L236.391 615.725L236.569 553.287L262.425 568.216Z" fill="#4045A9"/>
<path d="M309.652 540.772L309.475 603.21L262.249 630.655L262.425 568.216L309.652 540.772Z" fill="#4045A9"/>
<path d="M437.547 439.238L226.477 468.618L304.625 513.737L375.184 472.733L401.042 487.661L330.483 528.665L340.613 546.743L330.337 552.714L309.652 540.772L262.425 568.216L236.569 553.287L283.794 525.842L178.664 465.145L199.494 453.039L410.43 423.582L437.547 439.238Z" fill="#4A56CC"/>
<path d="M598.761 571.168L598.584 633.606C598.614 622.74 590.536 612.636 574.354 603.292C534.938 580.536 488.787 584.51 435.913 615.237C405.069 633.161 389.627 649.699 389.585 664.847L389.761 602.41C389.805 587.262 405.246 570.724 436.091 552.799C488.963 522.071 535.114 518.097 574.532 540.855C590.714 550.197 598.791 560.303 598.761 571.168Z" fill="#4045A9"/>
<path d="M634.123 575.593L633.947 638.032C633.893 657.355 615.604 677.63 579.084 698.853C512.145 737.753 450.378 740.874 393.809 708.213C367.127 692.81 353.811 676.798 353.858 660.182L354.035 597.744C353.988 614.361 367.304 630.371 393.986 645.775C450.555 678.436 512.321 675.316 579.26 636.416C615.783 615.192 634.069 594.917 634.123 575.593Z" fill="#4045A9"/>
<path d="M414.817 633.671C453.207 655.834 499.221 651.345 552.824 620.194C605.696 589.468 612.921 563.02 574.532 540.855C535.114 518.097 488.963 522.071 436.091 552.799C382.488 583.949 375.401 610.913 414.817 633.671ZM595.375 528.742C651.944 561.401 646.577 597.295 579.26 636.416C512.321 675.316 450.555 678.436 393.986 645.775C336.39 612.524 341.073 576.445 408.013 537.545C475.328 498.425 537.777 495.489 595.375 528.742Z" fill="#4A56CC"/>
<path d="M564.049 843.856L510.991 874.691C510.054 875.234 508.527 875.24 507.585 874.697L454.179 843.862C453.708 843.593 453.475 843.234 453.476 842.876L453.463 847.773C453.461 848.132 453.694 848.489 454.166 848.762L507.572 879.596C508.512 880.138 510.042 880.134 510.975 879.59L564.034 848.756C564.499 848.486 564.731 848.133 564.731 847.779L564.746 842.882C564.744 843.235 564.513 843.588 564.049 843.856Z" fill="#C93737"/>
<path d="M564.038 841.896C564.976 842.438 564.982 843.318 564.049 843.861L510.99 874.696C510.054 875.238 508.527 875.243 507.585 874.702L454.179 843.867C453.24 843.324 453.244 842.438 454.178 841.896L507.238 811.061C508.171 810.52 509.691 810.52 510.63 811.061L564.038 841.896Z" fill="#D93B3B"/>
<path d="M543.536 841.008L543.53 840.988C543.554 838.816 542.932 836.652 541.73 834.573L520.907 760.436L497.305 760.467L476.351 834.996C475.265 836.943 474.69 838.963 474.668 840.985L474.662 841.008H474.665C474.618 846.112 477.948 851.212 484.67 855.094C498.077 862.834 519.882 862.795 533.373 855.006C540.085 851.132 543.466 846.07 543.528 841.008H543.536Z" fill="#E83F3F"/>
<path d="M500.598 766.561C495.935 763.869 495.958 759.487 500.651 756.778C505.347 754.068 512.933 754.054 517.598 756.746C522.263 759.44 522.238 763.82 517.545 766.531C512.851 769.24 505.263 769.255 500.598 766.561Z" fill="#C93737"/>
<path d="M539.559 826.848L535.726 813.198C534.385 814.573 532.702 815.868 530.671 817.039C518.682 823.962 499.305 823.996 487.39 817.118C485.404 815.971 483.754 814.704 482.435 813.359L478.619 826.928C479.219 830.902 482.137 834.772 487.39 837.807C499.305 844.685 518.682 844.65 530.671 837.729C535.945 834.684 538.904 830.813 539.559 826.848Z" fill="#F2F2F2"/>
<path d="M526.556 780.547C516.078 784.801 502.089 784.847 491.625 780.669L486.531 798.788C486.82 798.969 487.084 799.16 487.39 799.338C499.305 806.217 518.683 806.181 530.671 799.26C531.014 799.061 531.314 798.847 531.638 798.643L526.556 780.547Z" fill="#F2F2F2"/>
<path d="M414.817 633.671C453.207 655.834 499.221 651.345 552.824 620.194C605.696 589.468 612.921 563.02 574.532 540.855C535.114 518.097 488.963 522.071 436.091 552.799C382.488 583.949 375.401 610.913 414.817 633.671ZM595.375 528.742C651.944 561.401 646.577 597.295 579.26 636.416C512.321 675.316 450.555 678.436 393.986 645.775C336.39 612.524 341.073 576.445 408.013 537.545C475.328 498.425 537.777 495.489 595.375 528.742Z" fill="#4A56CC"/>
<path d="M514.44 526.491L513.992 638.575C516.633 637.633 519.299 636.598 521.981 635.504L522.417 526.353C519.779 526.309 517.122 526.351 514.44 526.491Z" fill="#E2E2E2"/>
<path d="M522.417 526.353L522.498 506.12C519.849 505.958 517.189 505.886 514.522 505.86L514.44 526.491C517.122 526.351 519.779 526.309 522.417 526.353Z" fill="#E2E2E2"/>
<path d="M465.382 647.486C480.689 647.658 496.893 644.689 513.992 638.575L514.44 526.491C498.998 527.298 482.79 531.16 465.818 538.062L465.382 647.486Z" fill="#F2F2F2"/>
<path d="M514.44 526.491L514.522 505.86C498.641 505.698 482.44 507.913 465.92 512.505L465.818 538.062C482.79 531.16 498.999 527.298 514.44 526.491Z" fill="#F2F2F2"/>
<path d="M370.621 455.639L378.232 451.215C378.223 454.689 380.667 458.926 383.682 460.665L376.07 465.089C373.055 463.348 370.612 459.113 370.621 455.639Z" fill="#FDE169"/>
<path d="M370.645 447.387L378.257 442.962L378.232 451.215L370.621 455.639L370.645 447.387Z" fill="#FDE169"/>
<path d="M370.839 378.847L378.451 374.423L378.352 409.129L370.74 413.553L370.839 378.847Z" fill="#FDE169"/>
<path d="M417.582 489.056L425.194 484.632L455.397 502.069L447.786 506.493L417.582 489.056Z" fill="#FDE169"/>
<path d="M477.23 523.492L484.843 519.07L515.045 536.507L507.433 540.931L477.23 523.492Z" fill="#FDE169"/>
<path d="M536.877 557.93L544.489 553.506L574.692 570.945L567.081 575.369L536.877 557.93Z" fill="#FDE169"/>
<path d="M592.407 457.857L477.23 523.492L507.433 540.931L609.911 482.532L609.815 516.365L536.877 557.93L567.081 575.369L609.717 551.072L609.597 593.611C609.586 597.086 607.126 598.488 604.102 596.742L376.07 465.089C373.055 463.348 370.612 459.113 370.621 455.639L370.958 336.297C370.969 332.832 373.43 331.431 376.445 333.17L413.475 354.55L370.839 378.847L370.74 413.553L443.677 371.988L473.121 388.987L370.645 447.387L370.621 455.639C370.612 459.113 373.055 463.348 376.07 465.089L388.138 472.057L503.315 406.42L532.761 423.419L417.582 489.056L447.786 506.493L562.962 440.858L592.407 457.857Z" fill="#FDE169"/>
<path d="M376.07 465.089L383.682 460.665L395.75 467.633L388.138 472.057L376.07 465.089Z" fill="#FDE169"/>
<path d="M443.677 371.988L370.74 413.553L370.839 378.847L413.475 354.55L443.677 371.988Z" fill="#58595B"/>
<path d="M503.315 406.42L388.138 472.057L376.07 465.089C373.055 463.348 370.612 459.113 370.621 455.639L370.645 447.387L473.121 388.987L503.315 406.42Z" fill="#58595B"/>
<path d="M562.962 440.858L447.786 506.493L417.582 489.056L532.761 423.419L562.962 440.858Z" fill="#58595B"/>
<path d="M609.815 516.365L609.717 551.072L567.081 575.369L536.877 557.93L609.815 516.365Z" fill="#58595B"/>
<path d="M604.474 464.825C607.498 466.569 609.944 470.805 609.933 474.269L609.91 482.532L507.433 540.931L477.23 523.492L592.407 457.857L604.474 464.825Z" fill="#58595B"/>
<path d="M612.079 460.401L600.011 453.433L570.567 436.434L540.364 418.997L510.919 401.996L480.727 384.563L451.281 367.564L421.078 350.127L384.049 328.748C382.531 327.872 381.155 327.792 380.16 328.37L372.548 332.793C373.543 332.216 374.919 332.294 376.436 333.17L413.466 354.55L443.669 371.988L473.113 388.987L503.307 406.42L532.752 423.419L562.955 440.858L592.399 457.857L604.467 464.825C607.491 466.569 609.936 470.805 609.926 474.269L609.903 482.532L609.808 516.365L609.709 551.072L609.588 593.611C609.583 595.336 608.973 596.551 607.989 597.123L615.601 592.7C616.586 592.129 617.195 590.914 617.2 589.187L617.321 546.648L617.419 511.943L617.515 478.109L617.539 469.846C617.55 466.381 615.103 462.146 612.079 460.401Z" fill="#ECD262"/>
<path d="M579.653 564.268L397.239 458.953C396.107 458.298 395.409 457.089 395.409 455.78V368.819C395.409 366.001 398.46 364.238 400.901 365.649L583.315 470.964C584.448 471.617 585.147 472.826 585.147 474.135V561.097C585.147 563.915 582.094 565.677 579.653 564.268Z" fill="#E83F3F"/>
<path d="M419.04 413.946V393.246L422.841 395.442V416.139C422.841 422.615 425.649 427.474 431.263 430.716C436.878 433.958 439.687 432.342 439.687 425.866V405.169L443.487 407.361V428.06C443.487 436.893 439.413 438.957 431.263 434.252C423.115 429.546 419.04 422.778 419.04 413.946Z" fill="white"/>
<path d="M450.267 444.988V411.276L454.069 413.471L472.044 451.006V423.85L475.639 425.925V459.636L471.839 457.442L453.863 419.67V447.064L450.267 444.988Z" fill="white"/>
<path d="M493.308 466.301C500.499 470.452 504.094 467.781 504.094 458.289C504.094 450.023 500.499 443.813 493.308 439.663L486.426 435.689V462.327L493.308 466.301ZM482.625 463.669V429.957L493.308 436.125C503.033 441.74 507.895 449.859 507.895 460.483C507.895 472.334 503.033 475.452 493.308 469.837L482.625 463.669Z" fill="white"/>
<path d="M532.649 458.839V462.375L517.24 453.48V464.797L531.93 473.276V476.813L517.24 468.333V480.12L532.959 489.194V492.73L513.442 481.461V447.75L532.649 458.839Z" fill="white"/>
<path d="M538.71 496.05V462.339L551.243 469.575C556.831 472.801 559.625 477.11 559.625 482.5C559.625 486.885 556.891 488.553 551.428 487.503L561.514 509.216L556.502 506.322L547.154 485.767V482.915C552.77 485.135 555.578 484.281 555.578 480.352C555.578 477.24 554.016 474.782 550.893 472.979L542.51 468.14V498.245L538.71 496.05Z" fill="white"/>
<path d="M426.486 458.073C425.343 457.836 424.103 457.335 422.773 456.567C418.129 453.886 415.81 449.9 415.81 444.608C415.81 439.601 418.129 438.437 422.773 441.117C424.103 441.885 425.343 442.813 426.486 443.9V445.606C425.343 444.447 424.165 443.52 422.958 442.823C419.337 440.732 417.528 441.658 417.528 445.6C417.528 449.826 419.337 452.985 422.958 455.076C424.165 455.773 425.343 456.203 426.486 456.368V458.073Z" fill="white"/>
<path d="M435.521 462.328C438.691 464.159 440.275 463.018 440.275 458.904C440.275 454.848 438.691 451.906 435.521 450.076C432.285 448.206 430.665 449.3 430.665 453.356C430.665 457.469 432.285 460.46 435.521 462.328ZM428.855 452.374C428.855 447.211 431.077 445.911 435.521 448.477C439.898 451.005 442.086 454.85 442.086 460.013C442.086 465.149 439.898 466.454 435.521 463.927C431.077 461.36 428.855 457.51 428.855 452.374Z" fill="white"/>
<path d="M444.78 469.164V453.929L446.498 454.921L454.622 471.885V459.612L456.247 460.55V475.785L454.529 474.794L446.404 457.722V470.104L444.78 469.164Z" fill="white"/>
<path d="M459.218 476.969V475.157C460.611 476.529 462.115 477.682 463.73 478.616C466.015 479.934 467.158 479.634 467.158 477.717C467.158 476.082 466.315 474.779 464.632 473.808L462.923 472.82C460.143 471.216 458.753 469.028 458.753 466.259C458.753 463.347 460.534 462.918 464.092 464.972C465.641 465.868 467.079 466.91 468.41 468.105V469.916C467.079 468.58 465.641 467.465 464.092 466.571C461.679 465.178 460.471 465.404 460.471 467.251C460.471 468.884 461.288 470.174 462.923 471.116L464.632 472.102C467.461 473.735 468.876 475.938 468.876 478.708C468.876 481.691 467.161 482.193 463.73 480.212C462.115 479.281 460.611 478.199 459.218 476.969Z" fill="white"/>
<path d="M480.342 474.461V476.06L476.163 473.648V487.285L474.445 486.294V472.655L470.268 470.243V468.645L480.342 474.461Z" fill="white"/>
<path d="M482.386 490.877V475.64L488.049 478.911C490.575 480.369 491.837 482.317 491.837 484.752C491.837 486.735 490.602 487.488 488.132 487.014L492.691 496.827L490.425 495.519L486.201 486.23V484.94C488.74 485.944 490.008 485.558 490.008 483.782C490.008 482.376 489.302 481.265 487.89 480.45L484.102 478.263V491.868L482.386 490.877Z" fill="white"/>
<path d="M494.409 491.938V482.582L496.127 483.575V492.93C496.127 495.856 497.396 498.053 499.935 499.518C502.471 500.983 503.741 500.251 503.741 497.325V487.97L505.459 488.962V498.318C505.459 502.31 503.617 503.242 499.935 501.116C496.25 498.989 494.409 495.93 494.409 491.938Z" fill="white"/>
<path d="M518.551 511.225C517.407 510.99 516.168 510.488 514.837 509.719C510.194 507.039 507.872 503.054 507.872 497.762C507.872 492.754 510.194 491.589 514.837 494.271C516.168 495.039 517.407 495.966 518.551 497.054V498.759C517.407 497.6 516.231 496.672 515.024 495.975C511.401 493.885 509.592 494.81 509.592 498.753C509.592 502.98 511.401 506.139 515.024 508.229C516.231 508.926 517.407 509.357 518.551 509.52V511.225Z" fill="white"/>
<path d="M530.344 503.33V504.928L526.164 502.514V516.153L524.447 515.162V501.524L520.27 499.11V497.513L530.344 503.33Z" fill="white"/>
<path d="M534.383 505.661V520.899L532.664 519.906V504.669L534.383 505.661Z" fill="white"/>
<path d="M544.021 524.971C547.19 526.8 548.775 525.659 548.775 521.547C548.775 517.49 547.19 514.547 544.021 512.717C540.785 510.849 539.164 511.941 539.164 515.997C539.164 520.111 540.785 523.102 544.021 524.971ZM537.354 515.017C537.354 509.852 539.577 508.554 544.021 511.119C548.398 513.646 550.584 517.491 550.584 522.656C550.584 527.791 548.398 529.097 544.021 526.57C539.577 524.003 537.354 520.152 537.354 515.017Z" fill="white"/>
<path d="M553.28 531.807V516.57L554.995 517.562L563.122 534.527V522.253L564.746 523.192V538.428L563.028 537.436L554.904 520.365V532.745L553.28 531.807Z" fill="white"/>
<path d="M327.503 717.015L327.519 723.011L341.536 731.156L341.519 725.16L327.503 717.015Z" fill="#E8E8E8"/>
<path d="M344.605 735.452L344.588 729.454C344.584 727.898 343.561 726.348 341.519 725.16L341.535 731.156C343.578 732.344 344.6 733.896 344.605 735.452Z" fill="#E8E8E8"/>
<path d="M364.331 736.2L364.348 742.197L368.625 733.059L368.609 727.063L364.331 736.2Z" fill="#E8E8E8"/>
<path d="M329.724 749.512L329.742 755.508L345.532 753.062L345.516 747.065L329.724 749.512Z" fill="#E8E8E8"/>
<path d="M307.419 736.549L307.435 742.545L329.742 755.508L329.724 749.512L307.419 736.549Z" fill="#E8E8E8"/>
<path d="M345.516 747.065L345.532 753.062L402.363 786.087L402.347 780.091L345.516 747.065Z" fill="#E8E8E8"/>
<path d="M422.09 786.836L422.106 792.833C422.102 791.258 423.143 789.68 425.226 788.478C429.37 786.084 436.053 786.084 440.165 788.474L440.148 782.477C436.036 780.088 429.353 780.088 425.208 782.482C423.124 783.683 422.085 785.262 422.09 786.836Z" fill="#E8E8E8"/>
<path d="M454.166 790.624L454.182 796.62L459.276 785.739L459.259 779.742L454.166 790.624Z" fill="#E8E8E8"/>
<path d="M440.148 782.477L440.165 788.474L454.182 796.62L454.166 790.624L440.148 782.477Z" fill="#E8E8E8"/>
<path d="M398.069 789.23L398.086 795.226L420.391 808.188L420.375 802.191L398.069 789.23Z" fill="#E8E8E8"/>
<path d="M420.375 802.191L420.391 808.188L439.192 805.275L439.175 799.278L420.375 802.191Z" fill="#E8E8E8"/>
<path d="M312.514 725.669L307.419 736.549L329.724 749.512L345.516 747.065L402.347 780.091L398.069 789.23L420.375 802.191L439.175 799.278L425.159 791.131C421.047 788.742 421.068 784.871 425.208 782.482C429.353 780.088 436.036 780.088 440.148 782.477L454.166 790.624L459.259 779.742L436.953 766.779L421.162 769.228L364.331 736.2L368.609 727.063L346.303 714.1L327.503 717.015L341.519 725.16C345.631 727.551 345.61 731.422 341.464 733.814C337.325 736.203 330.642 736.203 326.53 733.814L312.514 725.669Z" fill="#F4F4F4"/>
<path d="M104.068 595.538L104.026 610.389L104 604.997L104.041 590.144L104.068 595.538Z" fill="#E2E2E2"/>
<path d="M104.099 600.927L104.056 615.779L104.026 610.389L104.068 595.538L104.099 600.927Z" fill="#E2E2E2"/>
<path d="M193.558 580.495L193.517 595.345C193.516 595.615 193.369 595.885 193.069 596.111L193.111 581.258C193.411 581.032 193.558 580.763 193.558 580.495Z" fill="#E8E8E8"/>
<path d="M200.581 600.927L200.538 615.778C200.541 616.414 199.731 616.955 198.64 617.035L198.682 602.183C199.772 602.103 200.584 601.563 200.581 600.927Z" fill="#E8E8E8"/>
<path d="M193.729 610.595L193.687 625.446C193.686 625.768 193.472 626.09 193.054 626.332L193.096 611.481C193.514 611.237 193.729 610.916 193.729 610.595Z" fill="#E8E8E8"/>
<path d="M110.85 595.329L110.892 580.478C110.892 580.751 111.044 581.026 111.354 581.26L111.312 596.111C111.003 595.879 110.85 595.603 110.85 595.329Z" fill="#E8E8E8"/>
<path d="M193.111 581.258L193.069 596.111L184.344 602.68L184.386 587.829L193.111 581.258Z" fill="#E8E8E8"/>
<path d="M120.145 587.829L120.102 602.682L111.312 596.111L111.354 581.26L120.145 587.829Z" fill="#E8E8E8"/>
<path d="M172.985 595.597L172.943 610.448C172.952 607.363 170.915 604.272 166.84 601.919C158.74 597.244 145.645 597.244 137.599 601.919C133.602 604.242 131.602 607.281 131.593 610.327L131.635 595.476C131.644 592.43 133.644 589.391 137.641 587.069C145.688 582.391 158.783 582.391 166.882 587.069C170.958 589.422 172.994 592.511 172.985 595.597Z" fill="#E8E8E8"/>
<path d="M106.011 602.183L105.968 617.035C105.476 616.998 105.036 616.866 104.703 616.673C104.305 616.445 104.058 616.126 104.056 615.779L104.098 600.927C104.1 601.276 104.345 601.592 104.745 601.822C105.077 602.015 105.517 602.145 106.011 602.183Z" fill="#E8E8E8"/>
<path d="M198.682 602.183L198.64 617.035L184.434 618.095L184.477 603.242L198.682 602.183Z" fill="#E8E8E8"/>
<path d="M120.236 603.242L120.193 618.095L105.968 617.035L106.011 602.183L120.236 603.242Z" fill="#E8E8E8"/>
<path d="M111.019 625.434L111.062 610.583C111.06 610.912 111.278 611.236 111.706 611.483L111.663 626.335C111.236 626.088 111.019 625.761 111.019 625.434Z" fill="#E8E8E8"/>
<path d="M193.096 611.481L193.054 626.332L186.489 630.147L186.531 615.296L193.096 611.481Z" fill="#E8E8E8"/>
<path d="M118.308 615.296L118.267 630.147L111.663 626.335L111.706 611.483L118.308 615.296Z" fill="#E8E8E8"/>
<path d="M186.531 615.296L186.489 630.147L179.929 633.959L179.971 619.108L186.531 615.296Z" fill="#E8E8E8"/>
<path d="M177.092 619.213L177.05 634.065L165.678 628.994L165.72 614.142L177.092 619.213Z" fill="#E8E8E8"/>
<path d="M124.913 619.108L124.87 633.959L118.267 630.147L118.308 615.296L124.913 619.108Z" fill="#E8E8E8"/>
<path d="M139.111 614.14L139.068 628.991L127.754 634.068L127.796 619.216L139.111 614.14Z" fill="#E8E8E8"/>
<path d="M179.971 619.108L179.929 633.959C179.154 634.409 177.926 634.454 177.05 634.065L177.092 619.213C177.968 619.604 179.197 619.558 179.971 619.108Z" fill="#E8E8E8"/>
<path d="M127.796 619.216L127.754 634.068C126.887 634.454 125.651 634.409 124.87 633.959L124.913 619.108C125.692 619.56 126.929 619.604 127.796 619.216Z" fill="#E8E8E8"/>
<path d="M165.72 614.142L165.678 628.994L163.893 637.229L163.935 622.376L165.72 614.142Z" fill="#E8E8E8"/>
<path d="M140.985 622.376L140.944 637.229L139.068 628.991L139.111 614.14L140.985 622.376Z" fill="#E8E8E8"/>
<path d="M163.935 622.376L163.893 637.229C163.757 637.86 162.832 638.329 161.734 638.33L161.776 623.478C162.873 623.478 163.799 623.008 163.935 622.376Z" fill="#E8E8E8"/>
<path d="M161.776 623.478L161.734 638.33L152.424 638.332L152.466 623.479L161.776 623.478Z" fill="#E8E8E8"/>
<path d="M152.466 623.479L152.424 638.332H143.118L143.159 623.479H152.466Z" fill="#E8E8E8"/>
<path d="M143.159 623.479L143.118 638.332C142.52 638.332 141.97 638.191 141.571 637.96C141.238 637.768 141.009 637.513 140.944 637.229L140.985 622.376C141.051 622.661 141.28 622.916 141.614 623.108C142.012 623.34 142.56 623.479 143.159 623.479Z" fill="#E8E8E8"/>
<path d="M137.74 604.004C145.839 608.68 158.93 608.683 166.978 604.006C175.024 599.329 174.982 591.744 166.882 587.069C158.783 582.391 145.688 582.391 137.641 587.069C129.593 591.746 129.64 599.327 137.74 604.004ZM193.268 609.813C193.943 610.319 193.869 611.031 193.096 611.481L186.532 615.296L179.971 619.108C179.197 619.558 177.968 619.604 177.093 619.213L165.72 614.142L163.936 622.376C163.799 623.008 162.873 623.478 161.777 623.478L152.466 623.479H143.159C142.561 623.479 142.012 623.34 141.614 623.108C141.28 622.916 141.052 622.661 140.985 622.376L139.111 614.14L127.796 619.216C126.93 619.604 125.692 619.56 124.913 619.108L118.309 615.296L111.706 611.483C110.927 611.034 110.845 610.318 111.515 609.816L120.236 603.242L106.011 602.183C105.517 602.145 105.077 602.015 104.746 601.822C104.346 601.592 104.1 601.275 104.099 600.927L104.068 595.538L104.041 590.144C104.038 589.509 104.847 588.971 105.936 588.891L120.145 587.829L111.354 581.26C110.679 580.754 110.753 580.042 111.527 579.592L118.087 575.78L124.651 571.963C125.425 571.515 126.654 571.469 127.529 571.859L138.902 576.93L140.683 568.698C140.82 568.066 141.747 567.594 142.846 567.594H152.151L161.463 567.592C162.06 567.592 162.608 567.733 163.005 567.962C163.34 568.154 163.567 568.41 163.632 568.698L165.511 576.931L176.83 571.859C177.694 571.469 178.927 571.516 179.706 571.966L186.309 575.778L192.913 579.592C193.692 580.042 193.777 580.755 193.112 581.258L184.386 587.829L198.607 588.89C199.104 588.928 199.546 589.059 199.879 589.252C200.278 589.481 200.522 589.797 200.525 590.144L200.551 595.538L200.581 600.927C200.584 601.563 199.772 602.103 198.683 602.183L184.477 603.242L193.268 609.813Z" fill="#F4F4F4"/>
<path d="M275.773 498.527L241.111 409.009C240.079 406.35 238.272 404.276 236.458 403.229C234.646 402.182 232.832 402.167 231.789 403.628L196.733 452.892C194.646 455.812 197.223 462.465 201.363 464.855L271.091 505.113C275.232 507.504 277.837 503.843 275.773 498.527Z" fill="#E83F3F"/>
<path d="M284.683 493.35L250.021 403.831C248.989 401.173 247.18 399.098 245.368 398.052C243.982 397.251 242.593 397.054 241.55 397.66L232.64 402.837C233.684 402.231 235.072 402.428 236.458 403.229C238.272 404.276 240.079 406.35 241.111 409.009L275.773 498.527C277.071 501.871 276.521 504.56 274.905 505.499L283.815 500.322C285.432 499.383 285.982 496.694 284.683 493.35Z" fill="#C93737"/>
<path d="M233.295 474.437L233.311 468.76L239.087 472.095L239.07 477.772L233.295 474.437Z" fill="white"/>
<path d="M233.419 430.571L239.194 433.904L239.102 466.416L233.326 463.083L233.419 430.571Z" fill="white"/>
<path d="M810.095 654.329L809.917 716.768L598.849 746.147L599.025 683.708L810.095 654.329Z" fill="#4045A9"/>
<path d="M656.342 740.933L656.165 803.372L551.034 742.673L551.211 680.236L656.342 740.933Z" fill="#4045A9"/>
<path d="M773.59 702.753L773.414 765.191L702.854 806.194L703.031 743.756L773.59 702.753Z" fill="#4045A9"/>
<path d="M702.887 767.805L702.71 830.243L682.023 818.3L682.2 755.861L702.887 767.805Z" fill="#4045A9"/>
<path d="M713.162 761.834L712.985 824.272L702.71 830.243L702.887 767.805L713.162 761.834Z" fill="#4045A9"/>
<path d="M634.975 783.307L634.797 845.746L608.939 830.816L609.117 768.378L634.975 783.307Z" fill="#4045A9"/>
<path d="M682.2 755.861L682.023 818.3L634.797 845.746L634.975 783.307L682.2 755.861Z" fill="#4045A9"/>
<path d="M810.095 654.329L599.025 683.708L677.173 728.828L747.732 687.823L773.59 702.753L703.031 743.756L713.162 761.834L702.887 767.805L682.2 755.861L634.975 783.307L609.117 768.378L656.342 740.933L551.211 680.236L572.042 668.13L782.978 638.674L810.095 654.329Z" fill="#4A56CC"/>
<path d="M277.425 713.437C254.794 726.504 217.986 726.437 195.214 713.291C172.441 700.141 172.326 678.892 194.957 665.826C217.588 652.76 254.394 652.826 277.167 665.974C299.94 679.122 300.055 700.371 277.425 713.437Z" fill="#ECD262"/>
<path d="M294.322 689.893H178.059V676.068H294.322V689.893Z" fill="#ECD262"/>
<path d="M277.425 699.062C254.794 712.128 217.986 712.062 195.214 698.914C172.441 685.767 172.326 664.515 194.957 651.451C217.588 638.385 254.394 638.451 277.167 651.599C299.94 664.747 300.055 685.998 277.425 699.062Z" fill="#FDE169"/>
<path d="M234.025 662.379V670.507L230.396 670.501L230.398 667.48L230.401 665.394L230.402 662.374L234.025 662.379Z" fill="white"/>
<path d="M238.232 684.913L235.029 686.751L233.657 685.958L235.258 685.039L232.055 683.192L230.454 684.108L224.681 680.777L226.281 679.857L223.08 678.009L221.478 678.927L216.212 675.888L219.416 674.05L238.232 684.913Z" fill="white"/>
<path d="M239.273 665.409L239.275 667.497L234.025 667.486L234.023 665.4L239.273 665.409Z" fill="white"/>
<path d="M244.43 676.515L249.679 676.525V678.613L244.43 678.603V676.515Z" fill="white"/>
<path d="M253.306 673.512L253.307 676.533L253.306 678.621V681.64L249.68 681.634L249.679 678.613V676.525V673.504L253.306 673.512Z" fill="white"/>
<path d="M225.152 665.386L230.401 665.394L230.399 667.48L225.148 667.471L225.152 665.386Z" fill="white"/>
<path d="M213.854 688.064C226.168 695.175 246.202 695.211 258.515 688.149C270.828 681.087 270.828 669.558 258.515 662.449C246.202 655.34 226.169 655.302 213.856 662.364C201.543 669.429 201.543 680.957 213.854 688.064ZM261.724 660.608C275.803 668.738 275.803 681.925 261.722 690.002C247.642 698.078 224.733 698.031 210.653 689.902C196.573 681.774 196.573 668.592 210.653 660.517C224.734 652.44 247.644 652.479 261.724 660.608Z" fill="white"/>
<path d="M235.258 685.039L233.657 685.958L231.085 687.433C227.728 689.358 222.266 689.348 218.907 687.41C215.55 685.471 215.55 682.327 218.907 680.403L221.478 678.927L223.08 678.009L226.281 679.857L224.681 680.777L222.11 682.249C220.519 683.163 220.519 684.654 222.11 685.574C223.701 686.49 226.292 686.496 227.884 685.584L230.454 684.108L232.055 683.192L235.258 685.039Z" fill="white"/>
<path d="M258.557 676.542V678.63L253.306 678.621L253.307 676.533L258.557 676.542Z" fill="white"/>
<path d="M715.874 628.227C717.585 629.215 719.254 629.979 720.869 630.53C719.007 631.614 717.145 632.694 715.283 633.776C713.668 633.226 711.997 632.461 710.288 631.474C711.964 630.5 714.199 629.202 715.874 628.227Z" fill="#E83F3F"/>
<path d="M691.142 585.39C691.096 601.11 702.193 620.329 715.874 628.227L710.288 631.474C696.607 623.575 685.512 604.357 685.556 588.635C685.579 580.826 688.347 575.325 692.802 572.734L698.389 569.489C693.933 572.078 691.163 577.58 691.142 585.39Z" fill="#E83F3F"/>
<path d="M699.27 614.128L704.856 610.881C707.953 615.261 711.77 619.008 715.894 621.39L710.308 624.635C706.185 622.255 702.369 618.507 699.27 614.128Z" fill="white"/>
<path d="M691.515 592.076L697.099 588.829C697.087 593.576 698.41 598.729 700.657 603.609L695.072 606.856C692.824 601.976 691.501 596.823 691.515 592.076Z" fill="white"/>
<path d="M729.301 622.691L723.716 625.937C720.285 627.93 715.538 627.655 710.308 624.635L715.894 621.39C721.125 624.409 725.872 624.684 729.301 622.691Z" fill="white"/>
<path d="M697.021 579.992L702.605 576.746C699.22 578.714 697.116 582.894 697.099 588.829L691.515 592.076C691.531 586.14 693.633 581.96 697.021 579.992Z" fill="white"/>
<path d="M720.869 630.53C725.754 632.198 730.127 631.915 733.52 629.943L727.936 633.189C724.542 635.16 720.169 635.445 715.283 633.776C717.145 632.694 719.007 631.614 720.869 630.53Z" fill="#E83F3F"/>
<path d="M697.021 579.992L702.605 576.746C706.037 574.752 710.785 575.028 716.017 578.051L710.431 581.296C705.197 578.275 700.449 577.998 697.021 579.992Z" fill="#E83F3F"/>
<path d="M692.802 572.736L698.389 569.489C702.902 566.866 709.152 567.229 716.035 571.204L710.45 574.449C703.566 570.475 697.317 570.112 692.802 572.736Z" fill="white"/>
<path d="M734.81 610.601C734.793 616.539 732.69 620.722 729.301 622.691L723.716 625.937C727.104 623.969 729.207 619.785 729.225 613.848C729.237 609.109 727.915 603.948 725.668 599.076L731.252 595.83C733.502 600.703 734.824 605.862 734.81 610.601Z" fill="#E83F3F"/>
<path d="M699.27 614.128L704.856 610.881L731.252 595.83L725.668 599.076L699.27 614.128Z" fill="#E83F3F"/>
<path d="M695.072 606.856L700.657 603.609L727.062 588.561L721.476 591.808L695.072 606.856Z" fill="white"/>
<path d="M716.017 578.051C720.139 580.431 723.957 584.17 727.062 588.561L721.476 591.808C718.37 587.417 714.555 583.676 710.431 581.296C712.106 580.322 714.341 579.023 716.017 578.051Z" fill="#E83F3F"/>
<path d="M733.52 629.943L727.936 633.189C732.393 630.599 735.161 625.097 735.183 617.289C735.226 601.568 724.131 582.348 710.45 574.449L716.035 571.204C729.718 579.102 740.813 598.321 740.769 614.042C740.746 621.85 737.979 627.352 733.52 629.943Z" fill="white"/>
<path d="M710.308 624.635C720.706 630.638 729.19 625.797 729.225 613.848C729.237 609.109 727.915 603.948 725.668 599.076L699.27 614.128C702.369 618.507 706.185 622.255 710.308 624.635ZM691.515 592.076C691.501 596.823 692.824 601.976 695.072 606.856L721.475 591.808C718.37 587.417 714.555 583.676 710.431 581.296C700.032 575.293 691.548 580.128 691.515 592.076ZM710.45 574.449C724.131 582.348 735.226 601.568 735.183 617.289C735.139 633.008 723.969 639.374 710.288 631.474C696.607 623.575 685.512 604.357 685.556 588.635C685.601 572.915 696.769 566.551 710.45 574.449Z" fill="white"/>
<path d="M699.27 614.128L725.668 599.076C727.915 603.948 729.237 609.109 729.225 613.848C729.19 625.797 720.706 630.638 710.308 624.635C706.185 622.255 702.369 618.507 699.27 614.128Z" fill="#E83F3F"/>
<path d="M710.431 581.296C714.555 583.676 718.37 587.417 721.476 591.808L695.072 606.856C692.824 601.976 691.501 596.823 691.515 592.076C691.548 580.128 700.033 575.293 710.431 581.296Z" fill="#E83F3F"/>
<path d="M710.288 631.474C723.969 639.374 735.139 633.008 735.183 617.289C735.226 601.568 724.131 582.348 710.45 574.449C696.769 566.551 685.601 572.915 685.556 588.635C685.512 604.357 696.607 623.575 710.288 631.474ZM742.49 578.207C745.596 579.999 748.105 584.344 748.096 587.914L747.887 661.452C747.876 665.018 745.35 666.459 742.244 664.665L678.249 627.717C675.143 625.925 672.634 621.579 672.644 618.01L672.853 544.472C672.862 540.904 675.388 539.465 678.493 541.257L742.49 578.207Z" fill="#E83F3F"/>
<path d="M748.076 574.96L684.08 538.011C682.515 537.11 681.1 537.025 680.077 537.619L674.493 540.866C675.514 540.272 676.93 540.355 678.493 541.257L742.49 578.207C745.596 579.999 748.105 584.344 748.096 587.914L747.887 661.45C747.882 663.224 747.256 664.471 746.247 665.058L751.832 661.811C752.841 661.226 753.468 659.978 753.471 658.205L753.68 584.667C753.691 581.099 751.182 576.754 748.076 574.96Z" fill="#C93737"/>
<path d="M893.47 475.728V496.4C893.47 498.107 893.832 499.323 894.558 500.048C895.283 500.731 896.542 501.072 898.333 501.072H902.622V506H897.374C894.131 506 891.699 505.253 890.078 503.76C888.456 502.267 887.646 499.813 887.646 496.4V475.728H883.102V470.928H887.646V462.096H893.47V470.928H902.622V475.728H893.47ZM927.086 470.288C929.731 470.288 932.121 470.864 934.254 472.016C936.387 473.125 938.051 474.811 939.246 477.072C940.483 479.333 941.102 482.085 941.102 485.328V506H935.342V486.16C935.342 482.661 934.467 479.995 932.718 478.16C930.969 476.283 928.579 475.344 925.55 475.344C922.478 475.344 920.025 476.304 918.19 478.224C916.398 480.144 915.502 482.939 915.502 486.608V506H909.678V458.64H915.502V475.92C916.654 474.128 918.233 472.741 920.238 471.76C922.286 470.779 924.569 470.288 927.086 470.288ZM982.616 487.12C982.616 488.229 982.552 489.403 982.424 490.64H954.392C954.605 494.096 955.778 496.805 957.912 498.768C960.088 500.688 962.712 501.648 965.784 501.648C968.301 501.648 970.392 501.072 972.056 499.92C973.762 498.725 974.957 497.147 975.64 495.184H981.912C980.973 498.555 979.096 501.307 976.28 503.44C973.464 505.531 969.965 506.576 965.784 506.576C962.456 506.576 959.469 505.829 956.824 504.336C954.221 502.843 952.173 500.731 950.68 498C949.186 495.227 948.44 492.027 948.44 488.4C948.44 484.773 949.165 481.595 950.616 478.864C952.066 476.133 954.093 474.043 956.696 472.592C959.341 471.099 962.37 470.352 965.784 470.352C969.112 470.352 972.056 471.077 974.616 472.528C977.176 473.979 979.138 475.984 980.504 478.544C981.912 481.061 982.616 483.92 982.616 487.12ZM976.6 485.904C976.6 483.685 976.109 481.787 975.128 480.208C974.146 478.587 972.802 477.371 971.096 476.56C969.432 475.707 967.576 475.28 965.528 475.28C962.584 475.28 960.066 476.219 957.976 478.096C955.928 479.973 954.754 482.576 954.456 485.904H976.6ZM1013.19 476.624C1014.21 474.619 1015.66 473.061 1017.54 471.952C1019.46 470.843 1021.79 470.288 1024.52 470.288V476.304H1022.98C1016.45 476.304 1013.19 479.845 1013.19 486.928V506H1007.37V470.928H1013.19V476.624ZM1063.24 487.12C1063.24 488.229 1063.18 489.403 1063.05 490.64H1035.02C1035.23 494.096 1036.4 496.805 1038.54 498.768C1040.71 500.688 1043.34 501.648 1046.41 501.648C1048.93 501.648 1051.02 501.072 1052.68 499.92C1054.39 498.725 1055.58 497.147 1056.26 495.184H1062.54C1061.6 498.555 1059.72 501.307 1056.9 503.44C1054.09 505.531 1050.59 506.576 1046.41 506.576C1043.08 506.576 1040.09 505.829 1037.45 504.336C1034.85 502.843 1032.8 500.731 1031.3 498C1029.81 495.227 1029.06 492.027 1029.06 488.4C1029.06 484.773 1029.79 481.595 1031.24 478.864C1032.69 476.133 1034.72 474.043 1037.32 472.592C1039.97 471.099 1043 470.352 1046.41 470.352C1049.74 470.352 1052.68 471.077 1055.24 472.528C1057.8 473.979 1059.76 475.984 1061.13 478.544C1062.54 481.061 1063.24 483.92 1063.24 487.12ZM1057.22 485.904C1057.22 483.685 1056.73 481.787 1055.75 480.208C1054.77 478.587 1053.43 477.371 1051.72 476.56C1050.06 475.707 1048.2 475.28 1046.15 475.28C1043.21 475.28 1040.69 476.219 1038.6 478.096C1036.55 479.973 1035.38 482.576 1035.08 485.904H1057.22ZM1068.75 488.336C1068.75 484.752 1069.48 481.616 1070.93 478.928C1072.38 476.197 1074.36 474.085 1076.88 472.592C1079.44 471.099 1082.3 470.352 1085.46 470.352C1088.49 470.352 1091.13 471.035 1093.39 472.4C1095.7 473.723 1097.38 475.365 1098.45 477.328V470.928H1104.34V522.64H1098.45V499.536C1097.34 501.499 1095.63 503.163 1093.33 504.528C1091.02 505.893 1088.34 506.576 1085.26 506.576C1082.19 506.576 1079.4 505.808 1076.88 504.272C1074.36 502.736 1072.38 500.581 1070.93 497.808C1069.48 495.035 1068.75 491.877 1068.75 488.336ZM1098.45 488.4C1098.45 485.755 1097.91 483.451 1096.85 481.488C1095.78 479.525 1094.33 478.032 1092.5 477.008C1090.7 475.941 1088.72 475.408 1086.54 475.408C1084.37 475.408 1082.38 475.92 1080.59 476.944C1078.8 477.968 1077.37 479.461 1076.3 481.424C1075.24 483.387 1074.7 485.691 1074.7 488.336C1074.7 491.024 1075.24 493.371 1076.3 495.376C1077.37 497.339 1078.8 498.853 1080.59 499.92C1082.38 500.944 1084.37 501.456 1086.54 501.456C1088.72 501.456 1090.7 500.944 1092.5 499.92C1094.33 498.853 1095.78 497.339 1096.85 495.376C1097.91 493.371 1098.45 491.045 1098.45 488.4ZM1145.28 470.928V506H1139.46V500.816C1138.35 502.608 1136.79 504.016 1134.79 505.04C1132.82 506.021 1130.65 506.512 1128.26 506.512C1125.53 506.512 1123.07 505.957 1120.9 504.848C1118.72 503.696 1116.99 501.989 1115.71 499.728C1114.48 497.467 1113.86 494.715 1113.86 491.472V470.928H1119.62V490.704C1119.62 494.16 1120.49 496.827 1122.24 498.704C1123.99 500.539 1126.38 501.456 1129.41 501.456C1132.52 501.456 1134.98 500.496 1136.77 498.576C1138.56 496.656 1139.46 493.861 1139.46 490.192V470.928H1145.28ZM1187.12 487.12C1187.12 488.229 1187.05 489.403 1186.92 490.64H1158.89C1159.1 494.096 1160.28 496.805 1162.41 498.768C1164.59 500.688 1167.21 501.648 1170.28 501.648C1172.8 501.648 1174.89 501.072 1176.56 499.92C1178.26 498.725 1179.46 497.147 1180.14 495.184H1186.41C1185.47 498.555 1183.6 501.307 1180.78 503.44C1177.96 505.531 1174.46 506.576 1170.28 506.576C1166.96 506.576 1163.97 505.829 1161.32 504.336C1158.72 502.843 1156.67 500.731 1155.18 498C1153.69 495.227 1152.94 492.027 1152.94 488.4C1152.94 484.773 1153.66 481.595 1155.12 478.864C1156.57 476.133 1158.59 474.043 1161.2 472.592C1163.84 471.099 1166.87 470.352 1170.28 470.352C1173.61 470.352 1176.56 471.077 1179.12 472.528C1181.68 473.979 1183.64 475.984 1185 478.544C1186.41 481.061 1187.12 483.92 1187.12 487.12ZM1181.1 485.904C1181.1 483.685 1180.61 481.787 1179.63 480.208C1178.65 478.587 1177.3 477.371 1175.6 476.56C1173.93 475.707 1172.08 475.28 1170.03 475.28C1167.08 475.28 1164.57 476.219 1162.48 478.096C1160.43 479.973 1159.25 482.576 1158.96 485.904H1181.1ZM1207.22 506.576C1204.53 506.576 1202.12 506.128 1199.99 505.232C1197.85 504.293 1196.17 503.013 1194.93 501.392C1193.69 499.728 1193.01 497.829 1192.88 495.696H1198.9C1199.07 497.445 1199.88 498.875 1201.33 499.984C1202.82 501.093 1204.77 501.648 1207.16 501.648C1209.37 501.648 1211.12 501.157 1212.4 500.176C1213.68 499.195 1214.32 497.957 1214.32 496.464C1214.32 494.928 1213.64 493.797 1212.28 493.072C1210.91 492.304 1208.8 491.557 1205.94 490.832C1203.34 490.149 1201.2 489.467 1199.54 488.784C1197.92 488.059 1196.51 487.013 1195.32 485.648C1194.16 484.24 1193.59 482.405 1193.59 480.144C1193.59 478.352 1194.12 476.709 1195.19 475.216C1196.25 473.723 1197.77 472.549 1199.73 471.696C1201.69 470.8 1203.93 470.352 1206.45 470.352C1210.33 470.352 1213.47 471.333 1215.86 473.296C1218.25 475.259 1219.53 477.947 1219.7 481.36H1213.88C1213.75 479.525 1213 478.053 1211.64 476.944C1210.31 475.835 1208.52 475.28 1206.26 475.28C1204.17 475.28 1202.5 475.728 1201.27 476.624C1200.03 477.52 1199.41 478.693 1199.41 480.144C1199.41 481.296 1199.77 482.256 1200.5 483.024C1201.27 483.749 1202.21 484.347 1203.32 484.816C1204.47 485.243 1206.05 485.733 1208.05 486.288C1210.57 486.971 1212.62 487.653 1214.2 488.336C1215.77 488.976 1217.12 489.957 1218.23 491.28C1219.38 492.603 1219.98 494.331 1220.02 496.464C1220.02 498.384 1219.49 500.112 1218.42 501.648C1217.35 503.184 1215.84 504.4 1213.88 505.296C1211.96 506.149 1209.74 506.576 1207.22 506.576ZM1235.34 475.728V496.4C1235.34 498.107 1235.71 499.323 1236.43 500.048C1237.16 500.731 1238.42 501.072 1240.21 501.072H1244.5V506H1239.25C1236.01 506 1233.57 505.253 1231.95 503.76C1230.33 502.267 1229.52 499.813 1229.52 496.4V475.728H1224.98V470.928H1229.52V462.096H1235.34V470.928H1244.5V475.728H1235.34ZM1283.55 487.12C1283.55 488.229 1283.49 489.403 1283.36 490.64H1255.33C1255.54 494.096 1256.72 496.805 1258.85 498.768C1261.03 500.688 1263.65 501.648 1266.72 501.648C1269.24 501.648 1271.33 501.072 1272.99 499.92C1274.7 498.725 1275.89 497.147 1276.58 495.184H1282.85C1281.91 498.555 1280.03 501.307 1277.22 503.44C1274.4 505.531 1270.9 506.576 1266.72 506.576C1263.39 506.576 1260.41 505.829 1257.76 504.336C1255.16 502.843 1253.11 500.731 1251.62 498C1250.12 495.227 1249.38 492.027 1249.38 488.4C1249.38 484.773 1250.1 481.595 1251.55 478.864C1253 476.133 1255.03 474.043 1257.63 472.592C1260.28 471.099 1263.31 470.352 1266.72 470.352C1270.05 470.352 1272.99 471.077 1275.55 472.528C1278.11 473.979 1280.08 475.984 1281.44 478.544C1282.85 481.061 1283.55 483.92 1283.55 487.12ZM1277.54 485.904C1277.54 483.685 1277.05 481.787 1276.07 480.208C1275.08 478.587 1273.74 477.371 1272.03 476.56C1270.37 475.707 1268.51 475.28 1266.47 475.28C1263.52 475.28 1261 476.219 1258.91 478.096C1256.87 479.973 1255.69 482.576 1255.39 485.904H1277.54ZM1289.06 488.336C1289.06 484.752 1289.79 481.616 1291.24 478.928C1292.69 476.197 1294.68 474.085 1297.19 472.592C1299.75 471.099 1302.61 470.352 1305.77 470.352C1308.5 470.352 1311.04 470.992 1313.38 472.272C1315.73 473.509 1317.52 475.152 1318.76 477.2V458.64H1324.65V506H1318.76V499.408C1317.61 501.499 1315.9 503.227 1313.64 504.592C1311.38 505.915 1308.73 506.576 1305.7 506.576C1302.59 506.576 1299.75 505.808 1297.19 504.272C1294.68 502.736 1292.69 500.581 1291.24 497.808C1289.79 495.035 1289.06 491.877 1289.06 488.336ZM1318.76 488.4C1318.76 485.755 1318.23 483.451 1317.16 481.488C1316.09 479.525 1314.64 478.032 1312.81 477.008C1311.02 475.941 1309.03 475.408 1306.86 475.408C1304.68 475.408 1302.7 475.92 1300.9 476.944C1299.11 477.968 1297.68 479.461 1296.62 481.424C1295.55 483.387 1295.02 485.691 1295.02 488.336C1295.02 491.024 1295.55 493.371 1296.62 495.376C1297.68 497.339 1299.11 498.853 1300.9 499.92C1302.7 500.944 1304.68 501.456 1306.86 501.456C1309.03 501.456 1311.02 500.944 1312.81 499.92C1314.64 498.853 1316.09 497.339 1317.16 495.376C1318.23 493.371 1318.76 491.045 1318.76 488.4ZM1361.35 461.072V487.952C1361.35 490.64 1362.01 492.709 1363.33 494.16C1364.65 495.611 1366.59 496.336 1369.15 496.336C1371.71 496.336 1373.68 495.611 1375.04 494.16C1376.41 492.709 1377.09 490.64 1377.09 487.952V461.072H1388.03V487.888C1388.03 491.899 1387.18 495.291 1385.47 498.064C1383.77 500.837 1381.46 502.928 1378.56 504.336C1375.7 505.744 1372.5 506.448 1368.96 506.448C1365.42 506.448 1362.24 505.765 1359.43 504.4C1356.65 502.992 1354.45 500.901 1352.83 498.128C1351.21 495.312 1350.4 491.899 1350.4 487.888V461.072H1361.35ZM1418.63 506L1409.29 489.04H1406.66V506H1395.72V461.072H1414.09C1417.63 461.072 1420.64 461.691 1423.11 462.928C1425.63 464.165 1427.5 465.872 1428.74 468.048C1429.98 470.181 1430.6 472.571 1430.6 475.216C1430.6 478.203 1429.74 480.869 1428.04 483.216C1426.37 485.563 1423.9 487.227 1420.61 488.208L1430.98 506H1418.63ZM1406.66 481.296H1413.45C1415.45 481.296 1416.94 480.805 1417.93 479.824C1418.95 478.843 1419.46 477.456 1419.46 475.664C1419.46 473.957 1418.95 472.613 1417.93 471.632C1416.94 470.651 1415.45 470.16 1413.45 470.16H1406.66V481.296ZM1448.41 497.552H1462.75V506H1437.47V461.072H1448.41V497.552ZM1052.46 548.928L1041.52 584H1035.5L1027.05 556.16L1018.6 584H1012.59L1001.58 548.928H1007.53L1015.6 578.368L1024.3 548.928H1030.25L1038.76 578.432L1046.7 548.928H1052.46ZM1056.06 566.336C1056.06 562.752 1056.79 559.616 1058.24 556.928C1059.69 554.197 1061.68 552.085 1064.19 550.592C1066.75 549.099 1069.59 548.352 1072.7 548.352C1075.78 548.352 1078.44 549.013 1080.7 550.336C1082.97 551.659 1084.65 553.323 1085.76 555.328V548.928H1091.65V584H1085.76V577.472C1084.61 579.52 1082.88 581.227 1080.58 582.592C1078.32 583.915 1075.67 584.576 1072.64 584.576C1069.53 584.576 1066.71 583.808 1064.19 582.272C1061.68 580.736 1059.69 578.581 1058.24 575.808C1056.79 573.035 1056.06 569.877 1056.06 566.336ZM1085.76 566.4C1085.76 563.755 1085.23 561.451 1084.16 559.488C1083.09 557.525 1081.64 556.032 1079.81 555.008C1078.02 553.941 1076.03 553.408 1073.86 553.408C1071.68 553.408 1069.7 553.92 1067.9 554.944C1066.11 555.968 1064.68 557.461 1063.62 559.424C1062.55 561.387 1062.02 563.691 1062.02 566.336C1062.02 569.024 1062.55 571.371 1063.62 573.376C1064.68 575.339 1066.11 576.853 1067.9 577.92C1069.7 578.944 1071.68 579.456 1073.86 579.456C1076.03 579.456 1078.02 578.944 1079.81 577.92C1081.64 576.853 1083.09 575.339 1084.16 573.376C1085.23 571.371 1085.76 569.045 1085.76 566.4ZM1113.91 584.576C1111.22 584.576 1108.81 584.128 1106.67 583.232C1104.54 582.293 1102.86 581.013 1101.62 579.392C1100.38 577.728 1099.7 575.829 1099.57 573.696H1105.59C1105.76 575.445 1106.57 576.875 1108.02 577.984C1109.51 579.093 1111.45 579.648 1113.84 579.648C1116.06 579.648 1117.81 579.157 1119.09 578.176C1120.37 577.195 1121.01 575.957 1121.01 574.464C1121.01 572.928 1120.33 571.797 1118.96 571.072C1117.6 570.304 1115.49 569.557 1112.63 568.832C1110.02 568.149 1107.89 567.467 1106.23 566.784C1104.61 566.059 1103.2 565.013 1102 563.648C1100.85 562.24 1100.27 560.405 1100.27 558.144C1100.27 556.352 1100.81 554.709 1101.87 553.216C1102.94 551.723 1104.46 550.549 1106.42 549.696C1108.38 548.8 1110.62 548.352 1113.14 548.352C1117.02 548.352 1120.16 549.333 1122.55 551.296C1124.94 553.259 1126.22 555.947 1126.39 559.36H1120.56C1120.43 557.525 1119.69 556.053 1118.32 554.944C1117 553.835 1115.21 553.28 1112.95 553.28C1110.86 553.28 1109.19 553.728 1107.95 554.624C1106.72 555.52 1106.1 556.693 1106.1 558.144C1106.1 559.296 1106.46 560.256 1107.19 561.024C1107.95 561.749 1108.89 562.347 1110 562.816C1111.15 563.243 1112.73 563.733 1114.74 564.288C1117.26 564.971 1119.3 565.653 1120.88 566.336C1122.46 566.976 1123.81 567.957 1124.91 569.28C1126.07 570.603 1126.66 572.331 1126.71 574.464C1126.71 576.384 1126.17 578.112 1125.11 579.648C1124.04 581.184 1122.53 582.4 1120.56 583.296C1118.64 584.149 1116.42 584.576 1113.91 584.576ZM1172.79 547.904C1176.97 547.904 1180.3 549.269 1182.77 552C1185.29 554.688 1186.55 558.4 1186.55 563.136V584H1175.67V564.608C1175.67 562.219 1175.05 560.363 1173.81 559.04C1172.58 557.717 1170.91 557.056 1168.82 557.056C1166.73 557.056 1165.07 557.717 1163.83 559.04C1162.59 560.363 1161.97 562.219 1161.97 564.608V584H1151.03V548.288H1161.97V553.024C1163.08 551.445 1164.58 550.208 1166.45 549.312C1168.33 548.373 1170.44 547.904 1172.79 547.904ZM1210.41 584.512C1206.91 584.512 1203.76 583.765 1200.94 582.272C1198.17 580.779 1195.97 578.645 1194.35 575.872C1192.77 573.099 1191.98 569.856 1191.98 566.144C1191.98 562.475 1192.79 559.253 1194.41 556.48C1196.03 553.664 1198.25 551.509 1201.07 550.016C1203.88 548.523 1207.04 547.776 1210.54 547.776C1214.04 547.776 1217.2 548.523 1220.01 550.016C1222.83 551.509 1225.05 553.664 1226.67 556.48C1228.29 559.253 1229.1 562.475 1229.1 566.144C1229.1 569.813 1228.27 573.056 1226.6 575.872C1224.98 578.645 1222.74 580.779 1219.88 582.272C1217.07 583.765 1213.91 584.512 1210.41 584.512ZM1210.41 575.04C1212.5 575.04 1214.27 574.272 1215.72 572.736C1217.22 571.2 1217.96 569.003 1217.96 566.144C1217.96 563.285 1217.24 561.088 1215.79 559.552C1214.38 558.016 1212.63 557.248 1210.54 557.248C1208.41 557.248 1206.64 558.016 1205.23 559.552C1203.82 561.045 1203.12 563.243 1203.12 566.144C1203.12 569.003 1203.8 571.2 1205.16 572.736C1206.57 574.272 1208.32 575.04 1210.41 575.04ZM1254.81 574.72V584H1249.24C1245.27 584 1242.18 583.04 1239.96 581.12C1237.74 579.157 1236.63 575.979 1236.63 571.584V557.376H1232.28V548.288H1236.63V539.584H1247.58V548.288H1254.75V557.376H1247.58V571.712C1247.58 572.779 1247.83 573.547 1248.35 574.016C1248.86 574.485 1249.71 574.72 1250.91 574.72H1254.81ZM1292.39 557.376H1286.5V584H1275.56V557.376H1271.59V548.288H1275.56V547.264C1275.56 542.869 1276.81 539.541 1279.33 537.28C1281.85 534.976 1285.54 533.824 1290.4 533.824C1291.21 533.824 1291.81 533.845 1292.2 533.888V543.168C1290.11 543.04 1288.63 543.339 1287.78 544.064C1286.93 544.789 1286.5 546.091 1286.5 547.968V548.288H1292.39V557.376ZM1313.79 584.512C1310.29 584.512 1307.13 583.765 1304.31 582.272C1301.54 580.779 1299.34 578.645 1297.72 575.872C1296.14 573.099 1295.35 569.856 1295.35 566.144C1295.35 562.475 1296.17 559.253 1297.79 556.48C1299.41 553.664 1301.63 551.509 1304.44 550.016C1307.26 548.523 1310.42 547.776 1313.91 547.776C1317.41 547.776 1320.57 548.523 1323.39 550.016C1326.2 551.509 1328.42 553.664 1330.04 556.48C1331.66 559.253 1332.47 562.475 1332.47 566.144C1332.47 569.813 1331.64 573.056 1329.98 575.872C1328.36 578.645 1326.12 580.779 1323.26 582.272C1320.44 583.765 1317.29 584.512 1313.79 584.512ZM1313.79 575.04C1315.88 575.04 1317.65 574.272 1319.1 572.736C1320.59 571.2 1321.34 569.003 1321.34 566.144C1321.34 563.285 1320.61 561.088 1319.16 559.552C1317.75 558.016 1316.01 557.248 1313.91 557.248C1311.78 557.248 1310.01 558.016 1308.6 559.552C1307.19 561.045 1306.49 563.243 1306.49 566.144C1306.49 569.003 1307.17 571.2 1308.54 572.736C1309.95 574.272 1311.7 575.04 1313.79 575.04ZM1373.54 548.288V584H1362.6V579.136C1361.49 580.715 1359.98 581.995 1358.06 582.976C1356.18 583.915 1354.09 584.384 1351.78 584.384C1349.05 584.384 1346.64 583.787 1344.55 582.592C1342.46 581.355 1340.84 579.584 1339.69 577.28C1338.54 574.976 1337.96 572.267 1337.96 569.152V548.288H1348.84V567.68C1348.84 570.069 1349.46 571.925 1350.7 573.248C1351.93 574.571 1353.6 575.232 1355.69 575.232C1357.82 575.232 1359.51 574.571 1360.74 573.248C1361.98 571.925 1362.6 570.069 1362.6 567.68V548.288H1373.54ZM1403.17 547.904C1407.35 547.904 1410.67 549.269 1413.15 552C1415.67 554.688 1416.93 558.4 1416.93 563.136V584H1406.05V564.608C1406.05 562.219 1405.43 560.363 1404.19 559.04C1402.95 557.717 1401.29 557.056 1399.2 557.056C1397.11 557.056 1395.44 557.717 1394.21 559.04C1392.97 560.363 1392.35 562.219 1392.35 564.608V584H1381.41V548.288H1392.35V553.024C1393.46 551.445 1394.95 550.208 1396.83 549.312C1398.71 548.373 1400.82 547.904 1403.17 547.904ZM1422.35 566.08C1422.35 562.411 1423.04 559.189 1424.4 556.416C1425.81 553.643 1427.71 551.509 1430.1 550.016C1432.49 548.523 1435.15 547.776 1438.1 547.776C1440.45 547.776 1442.58 548.267 1444.5 549.248C1446.46 550.229 1448 551.552 1449.11 553.216V536.64H1460.05V584H1449.11V578.88C1448.08 580.587 1446.61 581.952 1444.69 582.976C1442.81 584 1440.62 584.512 1438.1 584.512C1435.15 584.512 1432.49 583.765 1430.1 582.272C1427.71 580.736 1425.81 578.581 1424.4 575.808C1423.04 572.992 1422.35 569.749 1422.35 566.08ZM1449.11 566.144C1449.11 563.413 1448.34 561.259 1446.8 559.68C1445.31 558.101 1443.47 557.312 1441.3 557.312C1439.12 557.312 1437.27 558.101 1435.73 559.68C1434.24 561.216 1433.49 563.349 1433.49 566.08C1433.49 568.811 1434.24 570.987 1435.73 572.608C1437.27 574.187 1439.12 574.976 1441.3 574.976C1443.47 574.976 1445.31 574.187 1446.8 572.608C1448.34 571.029 1449.11 568.875 1449.11 566.144ZM1058.35 662.576C1055.06 662.576 1052.08 661.829 1049.39 660.336C1046.74 658.843 1044.65 656.731 1043.12 654C1041.62 651.227 1040.88 648.027 1040.88 644.4C1040.88 640.816 1041.65 637.659 1043.18 634.928C1044.76 632.155 1046.89 630.043 1049.58 628.592C1052.27 627.099 1055.28 626.352 1058.61 626.352C1061.93 626.352 1064.94 627.099 1067.63 628.592C1070.32 630.043 1072.43 632.133 1073.97 634.864C1075.54 637.595 1076.33 640.773 1076.33 644.4C1076.33 648.027 1075.52 651.227 1073.9 654C1072.32 656.731 1070.17 658.843 1067.44 660.336C1064.71 661.829 1061.68 662.576 1058.35 662.576ZM1058.35 657.456C1060.44 657.456 1062.4 656.965 1064.24 655.984C1066.07 655.003 1067.54 653.531 1068.65 651.568C1069.81 649.605 1070.38 647.216 1070.38 644.4C1070.38 641.584 1069.83 639.195 1068.72 637.232C1067.61 635.269 1066.16 633.819 1064.37 632.88C1062.57 631.899 1060.63 631.408 1058.54 631.408C1056.41 631.408 1054.45 631.899 1052.65 632.88C1050.9 633.819 1049.5 635.269 1048.43 637.232C1047.36 639.195 1046.83 641.584 1046.83 644.4C1046.83 647.259 1047.34 649.669 1048.37 651.632C1049.43 653.595 1050.84 655.067 1052.59 656.048C1054.34 656.987 1056.26 657.456 1058.35 657.456ZM1101.08 626.288C1105.35 626.288 1108.8 627.589 1111.45 630.192C1114.09 632.752 1115.41 636.464 1115.41 641.328V662H1109.65V642.16C1109.65 638.661 1108.78 635.995 1107.03 634.16C1105.28 632.283 1102.89 631.344 1099.86 631.344C1096.79 631.344 1094.34 632.304 1092.5 634.224C1090.71 636.144 1089.81 638.939 1089.81 642.608V662H1083.99V626.928H1089.81V631.92C1090.97 630.128 1092.52 628.741 1094.49 627.76C1096.49 626.779 1098.69 626.288 1101.08 626.288ZM1149.09 631.728V652.4C1149.09 654.107 1149.46 655.323 1150.18 656.048C1150.91 656.731 1152.17 657.072 1153.96 657.072H1158.25V662H1153C1149.76 662 1147.32 661.253 1145.7 659.76C1144.08 658.267 1143.27 655.813 1143.27 652.4V631.728H1138.73V626.928H1143.27V618.096H1149.09V626.928H1158.25V631.728H1149.09ZM1182.71 626.288C1185.36 626.288 1187.75 626.864 1189.88 628.016C1192.01 629.125 1193.68 630.811 1194.87 633.072C1196.11 635.333 1196.73 638.085 1196.73 641.328V662H1190.97V642.16C1190.97 638.661 1190.09 635.995 1188.34 634.16C1186.59 632.283 1184.2 631.344 1181.18 631.344C1178.1 631.344 1175.65 632.304 1173.82 634.224C1172.02 636.144 1171.13 638.939 1171.13 642.608V662H1165.3V614.64H1171.13V631.92C1172.28 630.128 1173.86 628.741 1175.86 627.76C1177.91 626.779 1180.19 626.288 1182.71 626.288ZM1209.25 621.232C1208.14 621.232 1207.2 620.848 1206.43 620.08C1205.66 619.312 1205.28 618.373 1205.28 617.264C1205.28 616.155 1205.66 615.216 1206.43 614.448C1207.2 613.68 1208.14 613.296 1209.25 613.296C1210.32 613.296 1211.21 613.68 1211.94 614.448C1212.7 615.216 1213.09 616.155 1213.09 617.264C1213.09 618.373 1212.7 619.312 1211.94 620.08C1211.21 620.848 1210.32 621.232 1209.25 621.232ZM1212.06 626.928V662H1206.24V626.928H1212.06ZM1234.41 662.576C1231.72 662.576 1229.31 662.128 1227.17 661.232C1225.04 660.293 1223.36 659.013 1222.12 657.392C1220.88 655.728 1220.2 653.829 1220.07 651.696H1226.09C1226.26 653.445 1227.07 654.875 1228.52 655.984C1230.01 657.093 1231.95 657.648 1234.34 657.648C1236.56 657.648 1238.31 657.157 1239.59 656.176C1240.87 655.195 1241.51 653.957 1241.51 652.464C1241.51 650.928 1240.83 649.797 1239.46 649.072C1238.1 648.304 1235.99 647.557 1233.13 646.832C1230.52 646.149 1228.39 645.467 1226.73 644.784C1225.11 644.059 1223.7 643.013 1222.5 641.648C1221.35 640.24 1220.77 638.405 1220.77 636.144C1220.77 634.352 1221.31 632.709 1222.37 631.216C1223.44 629.723 1224.96 628.549 1226.92 627.696C1228.88 626.8 1231.12 626.352 1233.64 626.352C1237.52 626.352 1240.66 627.333 1243.05 629.296C1245.44 631.259 1246.72 633.947 1246.89 637.36H1241.06C1240.93 635.525 1240.19 634.053 1238.82 632.944C1237.5 631.835 1235.71 631.28 1233.45 631.28C1231.36 631.28 1229.69 631.728 1228.45 632.624C1227.22 633.52 1226.6 634.693 1226.6 636.144C1226.6 637.296 1226.96 638.256 1227.69 639.024C1228.45 639.749 1229.39 640.347 1230.5 640.816C1231.65 641.243 1233.23 641.733 1235.24 642.288C1237.76 642.971 1239.8 643.653 1241.38 644.336C1242.96 644.976 1244.31 645.957 1245.41 647.28C1246.57 648.603 1247.16 650.331 1247.21 652.464C1247.21 654.384 1246.67 656.112 1245.61 657.648C1244.54 659.184 1243.03 660.4 1241.06 661.296C1239.14 662.149 1236.92 662.576 1234.41 662.576ZM1284.91 662.576C1282.22 662.576 1279.81 662.128 1277.67 661.232C1275.54 660.293 1273.86 659.013 1272.62 657.392C1271.38 655.728 1270.7 653.829 1270.57 651.696H1276.59C1276.76 653.445 1277.57 654.875 1279.02 655.984C1280.51 657.093 1282.45 657.648 1284.84 657.648C1287.06 657.648 1288.81 657.157 1290.09 656.176C1291.37 655.195 1292.01 653.957 1292.01 652.464C1292.01 650.928 1291.33 649.797 1289.96 649.072C1288.6 648.304 1286.49 647.557 1283.63 646.832C1281.02 646.149 1278.89 645.467 1277.23 644.784C1275.61 644.059 1274.2 643.013 1273 641.648C1271.85 640.24 1271.27 638.405 1271.27 636.144C1271.27 634.352 1271.81 632.709 1272.87 631.216C1273.94 629.723 1275.46 628.549 1277.42 627.696C1279.38 626.8 1281.62 626.352 1284.14 626.352C1288.02 626.352 1291.16 627.333 1293.55 629.296C1295.94 631.259 1297.22 633.947 1297.39 637.36H1291.56C1291.43 635.525 1290.69 634.053 1289.32 632.944C1288 631.835 1286.21 631.28 1283.95 631.28C1281.86 631.28 1280.19 631.728 1278.95 632.624C1277.72 633.52 1277.1 634.693 1277.1 636.144C1277.1 637.296 1277.46 638.256 1278.19 639.024C1278.95 639.749 1279.89 640.347 1281 640.816C1282.15 641.243 1283.73 641.733 1285.74 642.288C1288.26 642.971 1290.3 643.653 1291.88 644.336C1293.46 644.976 1294.81 645.957 1295.91 647.28C1297.07 648.603 1297.66 650.331 1297.71 652.464C1297.71 654.384 1297.17 656.112 1296.11 657.648C1295.04 659.184 1293.53 660.4 1291.56 661.296C1289.64 662.149 1287.42 662.576 1284.91 662.576ZM1337.93 643.12C1337.93 644.229 1337.86 645.403 1337.74 646.64H1309.7C1309.92 650.096 1311.09 652.805 1313.22 654.768C1315.4 656.688 1318.02 657.648 1321.1 657.648C1323.61 657.648 1325.7 657.072 1327.37 655.92C1329.07 654.725 1330.27 653.147 1330.95 651.184H1337.22C1336.29 654.555 1334.41 657.307 1331.59 659.44C1328.78 661.531 1325.28 662.576 1321.1 662.576C1317.77 662.576 1314.78 661.829 1312.14 660.336C1309.53 658.843 1307.49 656.731 1305.99 654C1304.5 651.227 1303.75 648.027 1303.75 644.4C1303.75 640.773 1304.48 637.595 1305.93 634.864C1307.38 632.133 1309.41 630.043 1312.01 628.592C1314.65 627.099 1317.68 626.352 1321.1 626.352C1324.42 626.352 1327.37 627.077 1329.93 628.528C1332.49 629.979 1334.45 631.984 1335.82 634.544C1337.22 637.061 1337.93 639.92 1337.93 643.12ZM1331.91 641.904C1331.91 639.685 1331.42 637.787 1330.44 636.208C1329.46 634.587 1328.11 633.371 1326.41 632.56C1324.74 631.707 1322.89 631.28 1320.84 631.28C1317.9 631.28 1315.38 632.219 1313.29 634.096C1311.24 635.973 1310.07 638.576 1309.77 641.904H1331.91ZM1351.44 632.624C1352.46 630.619 1353.91 629.061 1355.79 627.952C1357.71 626.843 1360.04 626.288 1362.77 626.288V632.304H1361.23C1354.7 632.304 1351.44 635.845 1351.44 642.928V662H1345.62V626.928H1351.44V632.624ZM1382.55 656.624L1393.43 626.928H1399.63L1385.87 662H1379.09L1365.33 626.928H1371.6L1382.55 656.624ZM1437.37 643.12C1437.37 644.229 1437.3 645.403 1437.17 646.64H1409.14C1409.35 650.096 1410.53 652.805 1412.66 654.768C1414.84 656.688 1417.46 657.648 1420.53 657.648C1423.05 657.648 1425.14 657.072 1426.81 655.92C1428.51 654.725 1429.71 653.147 1430.39 651.184H1436.66C1435.72 654.555 1433.85 657.307 1431.03 659.44C1428.21 661.531 1424.71 662.576 1420.53 662.576C1417.21 662.576 1414.22 661.829 1411.57 660.336C1408.97 658.843 1406.92 656.731 1405.43 654C1403.94 651.227 1403.19 648.027 1403.19 644.4C1403.19 640.773 1403.91 637.595 1405.37 634.864C1406.82 632.133 1408.84 630.043 1411.45 628.592C1414.09 627.099 1417.12 626.352 1420.53 626.352C1423.86 626.352 1426.81 627.077 1429.37 628.528C1431.93 629.979 1433.89 631.984 1435.25 634.544C1436.66 637.061 1437.37 639.92 1437.37 643.12ZM1431.35 641.904C1431.35 639.685 1430.86 637.787 1429.88 636.208C1428.9 634.587 1427.55 633.371 1425.85 632.56C1424.18 631.707 1422.33 631.28 1420.28 631.28C1417.33 631.28 1414.82 632.219 1412.73 634.096C1410.68 635.973 1409.5 638.576 1409.21 641.904H1431.35ZM1450.88 632.624C1451.9 630.619 1453.35 629.061 1455.23 627.952C1457.15 626.843 1459.47 626.288 1462.21 626.288V632.304H1460.67C1454.14 632.304 1450.88 635.845 1450.88 642.928V662H1445.05V626.928H1450.88V632.624Z" fill="#4A56CC"/>
<a href="/dashboard">
<rect x="1218" y="718" width="231" height="81" rx="20" fill="#4A56CC"/></a>
<path d="M1243.53 743.908C1246.26 743.908 1248.63 744.424 1250.62 745.456C1252.63 746.464 1254.17 747.916 1255.23 749.812C1256.31 751.708 1256.85 753.94 1256.85 756.508C1256.85 759.076 1256.31 761.308 1255.23 763.204C1254.17 765.076 1252.63 766.516 1250.62 767.524C1248.63 768.508 1246.26 769 1243.53 769H1235.71V743.908H1243.53ZM1243.53 766.3C1246.77 766.3 1249.24 765.448 1250.94 763.744C1252.65 762.016 1253.5 759.604 1253.5 756.508C1253.5 753.388 1252.63 750.952 1250.91 749.2C1249.2 747.448 1246.74 746.572 1243.53 746.572H1238.99V766.3H1243.53ZM1259.94 759.064C1259.94 757.048 1260.35 755.284 1261.17 753.772C1261.98 752.236 1263.1 751.048 1264.51 750.208C1265.95 749.368 1267.55 748.948 1269.3 748.948C1271.03 748.948 1272.53 749.32 1273.8 750.064C1275.07 750.808 1276.02 751.744 1276.65 752.872V749.272H1279.96V769H1276.65V765.328C1276 766.48 1275.03 767.44 1273.73 768.208C1272.46 768.952 1270.97 769.324 1269.27 769.324C1267.51 769.324 1265.93 768.892 1264.51 768.028C1263.1 767.164 1261.98 765.952 1261.17 764.392C1260.35 762.832 1259.94 761.056 1259.94 759.064ZM1276.65 759.1C1276.65 757.612 1276.35 756.316 1275.75 755.212C1275.15 754.108 1274.33 753.268 1273.3 752.692C1272.29 752.092 1271.17 751.792 1269.95 751.792C1268.73 751.792 1267.61 752.08 1266.6 752.656C1265.59 753.232 1264.79 754.072 1264.19 755.176C1263.59 756.28 1263.29 757.576 1263.29 759.064C1263.29 760.576 1263.59 761.896 1264.19 763.024C1264.79 764.128 1265.59 764.98 1266.6 765.58C1267.61 766.156 1268.73 766.444 1269.95 766.444C1271.17 766.444 1272.29 766.156 1273.3 765.58C1274.33 764.98 1275.15 764.128 1275.75 763.024C1276.35 761.896 1276.65 760.588 1276.65 759.1ZM1292.48 769.324C1290.97 769.324 1289.61 769.072 1288.41 768.568C1287.21 768.04 1286.26 767.32 1285.57 766.408C1284.87 765.472 1284.49 764.404 1284.41 763.204H1287.8C1287.89 764.188 1288.35 764.992 1289.17 765.616C1290.01 766.24 1291.1 766.552 1292.44 766.552C1293.69 766.552 1294.67 766.276 1295.39 765.724C1296.11 765.172 1296.47 764.476 1296.47 763.636C1296.47 762.772 1296.09 762.136 1295.32 761.728C1294.55 761.296 1293.37 760.876 1291.76 760.468C1290.29 760.084 1289.09 759.7 1288.16 759.316C1287.25 758.908 1286.45 758.32 1285.78 757.552C1285.13 756.76 1284.81 755.728 1284.81 754.456C1284.81 753.448 1285.11 752.524 1285.71 751.684C1286.31 750.844 1287.16 750.184 1288.27 749.704C1289.37 749.2 1290.63 748.948 1292.05 748.948C1294.23 748.948 1295.99 749.5 1297.34 750.604C1298.68 751.708 1299.4 753.22 1299.5 755.14H1296.22C1296.15 754.108 1295.73 753.28 1294.96 752.656C1294.22 752.032 1293.21 751.72 1291.94 751.72C1290.76 751.72 1289.83 751.972 1289.13 752.476C1288.43 752.98 1288.09 753.64 1288.09 754.456C1288.09 755.104 1288.29 755.644 1288.7 756.076C1289.13 756.484 1289.66 756.82 1290.28 757.084C1290.93 757.324 1291.82 757.6 1292.95 757.912C1294.36 758.296 1295.51 758.68 1296.4 759.064C1297.29 759.424 1298.05 759.976 1298.67 760.72C1299.32 761.464 1299.65 762.436 1299.68 763.636C1299.68 764.716 1299.38 765.688 1298.78 766.552C1298.18 767.416 1297.33 768.1 1296.22 768.604C1295.14 769.084 1293.89 769.324 1292.48 769.324ZM1314.1 748.912C1315.58 748.912 1316.93 749.236 1318.13 749.884C1319.33 750.508 1320.26 751.456 1320.94 752.728C1321.63 754 1321.98 755.548 1321.98 757.372V769H1318.74V757.84C1318.74 755.872 1318.25 754.372 1317.26 753.34C1316.28 752.284 1314.94 751.756 1313.23 751.756C1311.5 751.756 1310.12 752.296 1309.09 753.376C1308.08 754.456 1307.58 756.028 1307.58 758.092V769H1304.3V742.36H1307.58V752.08C1308.23 751.072 1309.12 750.292 1310.24 749.74C1311.4 749.188 1312.68 748.912 1314.1 748.912ZM1330.61 752.944C1331.28 751.768 1332.26 750.808 1333.56 750.064C1334.85 749.32 1336.33 748.948 1337.99 748.948C1339.76 748.948 1341.36 749.368 1342.77 750.208C1344.19 751.048 1345.31 752.236 1346.12 753.772C1346.94 755.284 1347.35 757.048 1347.35 759.064C1347.35 761.056 1346.94 762.832 1346.12 764.392C1345.31 765.952 1344.18 767.164 1342.74 768.028C1341.32 768.892 1339.74 769.324 1337.99 769.324C1336.28 769.324 1334.78 768.952 1333.49 768.208C1332.21 767.464 1331.25 766.516 1330.61 765.364V769H1327.33V742.36H1330.61V752.944ZM1344 759.064C1344 757.576 1343.7 756.28 1343.1 755.176C1342.5 754.072 1341.68 753.232 1340.65 752.656C1339.64 752.08 1338.53 751.792 1337.3 751.792C1336.1 751.792 1334.99 752.092 1333.95 752.692C1332.95 753.268 1332.13 754.12 1331.51 755.248C1330.91 756.352 1330.61 757.636 1330.61 759.1C1330.61 760.588 1330.91 761.896 1331.51 763.024C1332.13 764.128 1332.95 764.98 1333.95 765.58C1334.99 766.156 1336.1 766.444 1337.3 766.444C1338.53 766.444 1339.64 766.156 1340.65 765.58C1341.68 764.98 1342.5 764.128 1343.1 763.024C1343.7 761.896 1344 760.576 1344 759.064ZM1360.26 769.324C1358.41 769.324 1356.73 768.904 1355.22 768.064C1353.73 767.224 1352.56 766.036 1351.69 764.5C1350.85 762.94 1350.43 761.14 1350.43 759.1C1350.43 757.084 1350.87 755.308 1351.73 753.772C1352.62 752.212 1353.82 751.024 1355.33 750.208C1356.84 749.368 1358.53 748.948 1360.41 748.948C1362.28 748.948 1363.97 749.368 1365.48 750.208C1366.99 751.024 1368.18 752.2 1369.05 753.736C1369.93 755.272 1370.38 757.06 1370.38 759.1C1370.38 761.14 1369.92 762.94 1369.01 764.5C1368.12 766.036 1366.91 767.224 1365.37 768.064C1363.84 768.904 1362.13 769.324 1360.26 769.324ZM1360.26 766.444C1361.44 766.444 1362.54 766.168 1363.57 765.616C1364.61 765.064 1365.43 764.236 1366.06 763.132C1366.71 762.028 1367.03 760.684 1367.03 759.1C1367.03 757.516 1366.72 756.172 1366.09 755.068C1365.47 753.964 1364.65 753.148 1363.65 752.62C1362.64 752.068 1361.55 751.792 1360.37 751.792C1359.17 751.792 1358.07 752.068 1357.06 752.62C1356.07 753.148 1355.28 753.964 1354.68 755.068C1354.08 756.172 1353.78 757.516 1353.78 759.1C1353.78 760.708 1354.07 762.064 1354.65 763.168C1355.25 764.272 1356.04 765.1 1357.02 765.652C1358.01 766.18 1359.09 766.444 1360.26 766.444ZM1373.46 759.064C1373.46 757.048 1373.87 755.284 1374.69 753.772C1375.5 752.236 1376.62 751.048 1378.03 750.208C1379.47 749.368 1381.07 748.948 1382.82 748.948C1384.55 748.948 1386.05 749.32 1387.32 750.064C1388.59 750.808 1389.54 751.744 1390.17 752.872V749.272H1393.48V769H1390.17V765.328C1389.52 766.48 1388.55 767.44 1387.25 768.208C1385.98 768.952 1384.49 769.324 1382.79 769.324C1381.03 769.324 1379.45 768.892 1378.03 768.028C1376.62 767.164 1375.5 765.952 1374.69 764.392C1373.87 762.832 1373.46 761.056 1373.46 759.064ZM1390.17 759.1C1390.17 757.612 1389.87 756.316 1389.27 755.212C1388.67 754.108 1387.85 753.268 1386.82 752.692C1385.81 752.092 1384.69 751.792 1383.47 751.792C1382.25 751.792 1381.13 752.08 1380.12 752.656C1379.11 753.232 1378.31 754.072 1377.71 755.176C1377.11 756.28 1376.81 757.576 1376.81 759.064C1376.81 760.576 1377.11 761.896 1377.71 763.024C1378.31 764.128 1379.11 764.98 1380.12 765.58C1381.13 766.156 1382.25 766.444 1383.47 766.444C1384.69 766.444 1385.81 766.156 1386.82 765.58C1387.85 764.98 1388.67 764.128 1389.27 763.024C1389.87 761.896 1390.17 760.588 1390.17 759.1ZM1402.29 752.476C1402.87 751.348 1403.68 750.472 1404.74 749.848C1405.82 749.224 1407.13 748.912 1408.66 748.912V752.296H1407.8C1404.13 752.296 1402.29 754.288 1402.29 758.272V769H1399.01V749.272H1402.29V752.476ZM1411.22 759.064C1411.22 757.048 1411.63 755.284 1412.44 753.772C1413.26 752.236 1414.38 751.048 1415.79 750.208C1417.23 749.368 1418.84 748.948 1420.62 748.948C1422.15 748.948 1423.58 749.308 1424.9 750.028C1426.22 750.724 1427.23 751.648 1427.92 752.8V742.36H1431.24V769H1427.92V765.292C1427.28 766.468 1426.32 767.44 1425.04 768.208C1423.77 768.952 1422.28 769.324 1420.58 769.324C1418.83 769.324 1417.23 768.892 1415.79 768.028C1414.38 767.164 1413.26 765.952 1412.44 764.392C1411.63 762.832 1411.22 761.056 1411.22 759.064ZM1427.92 759.1C1427.92 757.612 1427.62 756.316 1427.02 755.212C1426.42 754.108 1425.61 753.268 1424.58 752.692C1423.57 752.092 1422.45 751.792 1421.23 751.792C1420 751.792 1418.89 752.08 1417.88 752.656C1416.87 753.232 1416.07 754.072 1415.47 755.176C1414.87 756.28 1414.57 757.576 1414.57 759.064C1414.57 760.576 1414.87 761.896 1415.47 763.024C1416.07 764.128 1416.87 764.98 1417.88 765.58C1418.89 766.156 1420 766.444 1421.23 766.444C1422.45 766.444 1423.57 766.156 1424.58 765.58C1425.61 764.98 1426.42 764.128 1427.02 763.024C1427.62 761.896 1427.92 760.588 1427.92 759.1Z" fill="white"/>
</g>
</g>
<defs>
<filter id="filter0_d_0_3" x="0" y="0" width="1640" height="1224" filterUnits="userSpaceOnUse" color-interpolation-filters="sRGB">
<feFlood flood-opacity="0" result="BackgroundImageFix"/>
<feColorMatrix in="SourceAlpha" type="matrix" values="0 0 0 0 0 0 0 0 0 0 0 0 0 0 0 0 0 0 127 0" result="hardAlpha"/>
<feOffset dx="30" dy="30"/>
<feGaussianBlur stdDeviation="50"/>
<feColorMatrix type="matrix" values="0 0 0 0 0 0 0 0 0 0 0 0 0 0 0 0 0 0 0.1 0"/>
<feBlend mode="normal" in2="BackgroundImageFix" result="effect1_dropShadow_0_3"/>
<feBlend mode="normal" in="SourceGraphic" in2="effect1_dropShadow_0_3" result="shape"/>
</filter>
<filter id="filter1_d_0_3" x="-109.5" y="101.831" width="1078.35" height="1235.34" filterUnits="userSpaceOnUse" color-interpolation-filters="sRGB">
<feFlood flood-opacity="0" result="BackgroundImageFix"/>
<feColorMatrix in="SourceAlpha" type="matrix" values="0 0 0 0 0 0 0 0 0 0 0 0 0 0 0 0 0 0 127 0" result="hardAlpha"/>
<feOffset dx="5" dy="5"/>
<feGaussianBlur stdDeviation="25"/>
<feColorMatrix type="matrix" values="0 0 0 0 0.501961 0 0 0 0 0.74902 0 0 0 0 1 0 0 0 0.5 0"/>
<feBlend mode="normal" in2="BackgroundImageFix" result="effect1_dropShadow_0_3"/>
<feBlend mode="normal" in="SourceGraphic" in2="effect1_dropShadow_0_3" result="shape"/>
</filter>
<filter id="filter2_d_0_3" x="1043.47" y="-521.067" width="1101.8" height="1215.02" filterUnits="userSpaceOnUse" color-interpolation-filters="sRGB">
<feFlood flood-opacity="0" result="BackgroundImageFix"/>
<feColorMatrix in="SourceAlpha" type="matrix" values="0 0 0 0 0 0 0 0 0 0 0 0 0 0 0 0 0 0 127 0" result="hardAlpha"/>
<feOffset dx="5" dy="5"/>
<feGaussianBlur stdDeviation="25"/>
<feColorMatrix type="matrix" values="0 0 0 0 0.501961 0 0 0 0 0.74902 0 0 0 0 1 0 0 0 0.5 0"/>
<feBlend mode="normal" in2="BackgroundImageFix" result="effect1_dropShadow_0_3"/>
<feBlend mode="normal" in="SourceGraphic" in2="effect1_dropShadow_0_3" result="shape"/>
</filter>
<clipPath id="clip0_0_3">
<rect x="70" y="70" width="1440" height="1024" rx="30" fill="white"/>
</clipPath>
</defs>
</svg>
